<?xml version="1.0" encoding="UTF-8"?>
<svg id="Layer_1" data-name="Layer 1" xmlns="http://www.w3.org/2000/svg" viewBox="0 0 512 376.55">
    <g id="_15._Rocket" data-name="15. Rocket">
        <g>
            <g>
                <path
                    d="m500.1,188.28c-23.33,40.36-58.46,73.05-100.67,93.37h0s0-186.73,0-186.73h0c42.21,20.31,77.34,53,100.67,93.36Z"
                    style="fill: #ff7124;" />
                <path
                    d="m78.64,88.7l158.69-12.02h0s61.39-4.65,61.39-4.65c36.07,0,70.22,8.21,100.69,22.87h0s0,186.73,0,186.73h0c-30.47,14.67-64.62,22.88-100.69,22.88l-61.39-4.65-158.7-12.03v-49.77s0-49.79,0-49.79v-49.79s0-49.79,0-49.79Zm185.51,161.06c33.96,0,61.5-27.53,61.49-61.49,0-33.96-27.53-61.5-61.49-61.49-33.96,0-61.5,27.53-61.49,61.49,0,33.96,27.53,61.5,61.49,61.49Z"
                    style="fill: #f2d59f;" />
                <path
                    d="m237.34,299.86c-36.91,39.84-89.7,64.79-148.29,64.79-17.99,0-35.42-2.35-52.03-6.77l41.62-70.05,158.7,12.03Z"
                    style="fill: #f2d59f;" />
                <path
                    d="m325.64,188.27c0,33.96-27.53,61.5-61.49,61.49-33.96,0-61.5-27.53-61.49-61.49,0-33.96,27.53-61.5,61.49-61.49,33.96,0,61.5,27.53,61.49,61.49Z"
                    style="fill: #8ecac1;" />
                <path
                    d="m78.64,287.84l-45.99-21.23c-12.65-5.83-20.75-18.49-20.74-32.42v-11.53s66.73,15.41,66.73,15.41v49.77Z"
                    style="fill: #e6b263;" />
                <polygon points="78.64 238.07 11.91 222.66 11.9 222.65 11.9 188.28 78.64 188.28 78.64 238.07"
                    style="fill: #e6b263;" />
                <path
                    d="m237.33,76.68l-158.69,12.02L37.02,18.67c16.6-4.42,34.04-6.76,52.03-6.77,58.59,0,111.36,24.93,148.28,64.78Z"
                    style="fill: #f2d59f;" />
                <polygon points="78.64 188.28 11.9 188.28 11.91 153.9 78.64 138.49 78.64 188.28"
                    style="fill: #e6b263;" />
                <path d="m78.64,138.49l-66.73,15.41v-11.54c0-13.93,8.09-26.58,20.73-32.42l46-21.24v49.79Z"
                    style="fill: #e6b263;" />
            </g>
            <g>
                <path
                    d="m70.22,296.25c-2.15-2.15-3.49-5.13-3.49-8.42V88.7c0-6.57,5.33-11.9,11.9-11.9,6.57,0,11.9,5.33,11.9,11.9v199.14c0,6.57-5.33,11.9-11.9,11.9-3.29,0-6.26-1.33-8.42-3.49Z"
                    style="fill: #5e2a41;" />
                <path
                    d="m212.26,240.17c-13.86-13.86-21.5-32.3-21.49-51.9,0-19.6,7.63-38.03,21.49-51.89,13.86-13.86,32.3-21.5,51.9-21.49,19.6,0,38.03,7.63,51.89,21.49,13.86,13.86,21.5,32.3,21.49,51.9,0,19.6-7.63,38.03-21.49,51.89-13.86,13.86-32.29,21.5-51.89,21.49h0s0,0,0,0c-19.6,0-38.03-7.63-51.89-21.49Zm86.96-86.96c-9.37-9.37-21.82-14.52-35.06-14.52-13.25,0-25.7,5.15-35.07,14.52s-14.52,21.82-14.52,35.06c0,13.25,5.15,25.7,14.52,35.07s21.82,14.52,35.06,14.52c0,0,0,0,0,0,13.24,0,25.69-5.15,35.06-14.52,9.37-9.37,14.52-21.82,14.52-35.06,0-13.25-5.15-25.7-14.52-35.07Z"
                    style="fill: #5e2a41;" />
                <path
                    d="m3.49,162.31c-1.52-1.52-2.65-3.48-3.17-5.73-1.48-6.4,2.51-12.8,8.92-14.27l66.73-15.41c6.41-1.48,12.8,2.51,14.28,8.92,1.48,6.4-2.51,12.8-8.92,14.27l-66.73,15.41c-4.15.96-8.3-.38-11.1-3.19Z"
                    style="fill: #5e2a41;" />
                <path
                    d="m3.49,196.69c-2.15-2.15-3.49-5.13-3.49-8.42,0-6.57,5.33-11.9,11.9-11.9h66.74c6.57,0,11.9,5.33,11.9,11.9,0,6.57-5.33,11.9-11.9,11.9H11.9c-3.29,0-6.26-1.33-8.42-3.49Z"
                    style="fill: #5e2a41;" />
                <path
                    d="m3.5,231.08c-2.81-2.81-4.15-6.95-3.19-11.1,1.48-6.4,7.87-10.4,14.27-8.92l66.73,15.41c6.41,1.48,10.4,7.87,8.92,14.28-1.48,6.4-7.87,10.4-14.27,8.92l-66.73-15.41c-2.25-.52-4.21-1.65-5.73-3.17Z"
                    style="fill: #5e2a41;" />
                <path
                    d="m228.92,85.1c-1.94-1.94-3.22-4.56-3.45-7.51-.5-6.55,4.41-12.27,10.97-12.77l61.39-4.65c6.55-.5,12.27,4.41,12.77,10.97.5,6.55-4.41,12.27-10.97,12.77l-61.39,4.65c-3.6.27-6.95-1.09-9.32-3.45Z"
                    style="fill: #5e2a41;" />
                <path
                    d="m14,267.89C5.21,259.09,0,247.01,0,234.18v-11.08c0-.15,0-.3,0-.45v-80.28c.01-18.51,10.86-35.48,27.65-43.23l46-21.24c1.29-.6,2.68-.96,4.09-1.06l158.69-12.02c6.56-.49,12.27,4.42,12.77,10.97.5,6.56-4.42,12.27-10.97,12.77l-156.55,11.85-44.05,20.34c-8.39,3.88-13.82,12.36-13.83,21.62v79.84c0,.15,0,.3,0,.45v11.53c0,9.26,5.42,17.74,13.82,21.61l44.05,20.34,217.96,16.52c6.56.5,11.47,6.22,10.97,12.77-.5,6.56-6.21,11.47-12.77,10.97l-220.1-16.68c-1.41-.11-2.8-.47-4.09-1.06l-45.99-21.23c-5.16-2.38-9.76-5.63-13.65-9.52Z"
                    style="fill: #5e2a41;" />
                <path
                    d="m290.32,312.93c-2.15-2.15-3.49-5.13-3.49-8.42,0-6.57,5.33-11.9,11.9-11.9,33.47,0,65.61-7.3,95.53-21.7,38.08-18.33,69.75-46.81,91.96-82.64-22.21-35.83-53.88-64.32-91.96-82.64-29.92-14.4-62.06-21.7-95.53-21.7-6.57,0-11.9-5.33-11.9-11.9,0-6.57,5.33-11.9,11.9-11.9,37.07,0,72.69,8.09,105.85,24.05,44.49,21.42,81.09,55.35,105.82,98.14,2.13,3.68,2.13,8.23,0,11.91-24.73,42.79-61.32,76.72-105.82,98.14-33.16,15.96-68.78,24.05-105.85,24.05-3.29,0-6.26-1.33-8.42-3.49Z"
                    style="fill: #5e2a41;" />
                <path
                    d="m391,290.05c-2.15-2.15-3.49-5.13-3.49-8.42V94.92c0-6.57,5.33-11.9,11.9-11.9,6.58,0,11.9,5.33,11.9,11.9v186.72c0,6.57-5.33,11.9-11.9,11.9-3.29,0-6.26-1.33-8.42-3.49Z"
                    style="fill: #5e2a41;" />
                <path
                    d="m70.23,97.12c-.7-.7-1.32-1.49-1.82-2.34L26.79,24.75c-1.91-3.21-2.2-7.12-.79-10.57,1.41-3.45,4.36-6.05,7.96-7.01C51.8,2.42,70.33,0,89.04,0c59.39,0,116.62,24.97,156.98,68.55,4.37,4.67,4.28,12-.27,16.55s-12.18,4.65-16.83,0h0c-.11-.12-.21-.22-.31-.33-35.89-38.74-86.76-60.97-139.55-60.96-11.25,0-22.43.99-33.39,2.92l33.08,55.67c2.87,4.59,2.31,10.72-1.68,14.72-4.65,4.65-12.18,4.65-16.83,0Z"
                    style="fill: #5e2a41;" />
                <path
                    d="m28.61,366.3c-1.11-1.11-2-2.43-2.6-3.92-1.41-3.45-1.12-7.37.79-10.57l41.62-70.05c3.36-5.65,10.66-7.51,16.31-4.15,5.65,3.35,7.51,10.66,4.15,16.31l-33.22,55.91c10.96,1.94,22.14,2.92,33.4,2.93,52.79,0,103.65-22.22,139.55-60.98,4.47-4.82,12-5.11,16.82-.64,4.83,4.44,5.11,12,.64,16.82-40.39,43.6-97.62,68.6-157.02,68.6-18.71,0-37.25-2.42-55.09-7.17-2.05-.54-3.89-1.62-5.35-3.08Z"
                    style="fill: #5e2a41;" />
            </g>
        </g>
    </g>
</svg>